<?xml version="1.0" standalone="no"?><!DOCTYPE svg PUBLIC "-//W3C//DTD SVG 1.1//EN" "http://www.w3.org/Graphics/SVG/1.1/DTD/svg11.dtd"><svg t="1536947141245" class="icon" style="" viewBox="0 0 1024 1024" version="1.1" xmlns="http://www.w3.org/2000/svg" p-id="3144" xmlns:xlink="http://www.w3.org/1999/xlink" width="88" height="88"><defs><style type="text/css"></style></defs><path d="M928.512 959.744a32 32 0 0 1-32-32v-256a32 32 0 0 1 64 0v256a32 32 0 0 1-32 32z" fill="#ffffff" p-id="3145"></path><path d="M960.512 927.744a32 32 0 0 1-32 32h-256a32 32 0 0 1 0-64h256a32 32 0 0 1 32 32zM95.744 64.256a32 32 0 0 1 32 32v256a32 32 0 0 1-64 0v-256a32 32 0 0 1 32-32z" fill="#ffffff" p-id="3146"></path><path d="M63.744 96.256a32 32 0 0 1 32-32h256a32 32 0 0 1 0 64h-256a32 32 0 0 1-32-32z" fill="#ffffff" p-id="3147"></path><path d="M384.064 671.744a32 32 0 0 1-32 32h-256a32 32 0 0 1 0-64h256a32 32 0 0 1 32 32z" fill="#ffffff" p-id="3148"></path><path d="M352.064 639.744a32 32 0 0 1 32 32v256a32 32 0 0 1-64 0v-256a32 32 0 0 1 32-32z" fill="#ffffff" p-id="3149"></path><path d="M366.656 657.216a32 32 0 0 1 0 45.248L118.72 950.4a32 32 0 0 1-45.248-45.248l247.936-247.936a31.936 31.936 0 0 1 45.248 0z" fill="#ffffff" p-id="3150"></path><path d="M639.616 352.512a32 32 0 0 1 32-32h256a32 32 0 0 1 0 64h-256a32 32 0 0 1-32-32z" fill="#ffffff" p-id="3151"></path><path d="M671.616 384.512a32 32 0 0 1-32-32v-256a32 32 0 0 1 64 0v256a32 32 0 0 1-32 32z" fill="#ffffff" p-id="3152"></path><path d="M657.088 367.104a32 32 0 0 1 0-45.248l247.936-247.936a32 32 0 0 1 45.248 45.248l-247.936 247.936a32 32 0 0 1-45.248 0z" fill="#ffffff" p-id="3153"></path></svg>