<?xml version="1.0" standalone="no"?><!DOCTYPE svg PUBLIC "-//W3C//DTD SVG 1.1//EN" "http://www.w3.org/Graphics/SVG/1.1/DTD/svg11.dtd"><svg t="1538662450980" class="icon" style="" viewBox="0 0 1024 1024" version="1.1" xmlns="http://www.w3.org/2000/svg" p-id="3343" xmlns:xlink="http://www.w3.org/1999/xlink" width="64" height="64"><defs><style type="text/css"></style></defs><path d="M469.65559 510.798639c0 0-236.313124-234.846726-351.196641-349.535815-8.105608-8.098445-13.096273-17.063631-11.546987-28.783557 1.570775-11.920494 8.019651-20.354584 19.046798-24.950252 11.361769-4.730745 22.00006-2.747577 31.612998 4.743024 2.365884 1.847068 4.427846 4.100388 6.566556 6.231935 114.209158 114.1539 350.083284 349.080443 350.083284 349.080443S747.984642 231.691873 862.7382 116.866684c8.821923-8.831132 18.668175-13.790074 31.369452-10.943236 23.605627 5.297656 32.607652 33.372062 16.482393 51.386344-1.724271 1.932002-3.626597 3.704368-5.455245 5.533017C790.932804 277.002848 555.243897 511.084141 555.243897 511.084141S792.002159 746.151901 906.562311 860.559581c6.983041 6.977925 12.102642 14.572904 12.041244 24.831548-0.074701 13.159718-6.04774 22.947641-17.779945 28.499078-12.003382 5.682419-23.550369 3.89675-33.824363-4.681626-2.143826-1.790786-4.070712-3.858888-6.053879-5.848195C746.896868 789.362029 513.111311 555.213197 513.111311 555.213197s-235.81989 235.186464-350.715687 350.173334c-9.259898 9.262968-19.650549 13.912871-32.691563 10.431583-22.481014-6.008854-30.636764-33.150004-15.296381-50.682309 1.704828-1.950422 3.587712-3.736091 5.4225-5.562692C234.187717 745.245252 466.523249 513.542122 469.75485 510.798639L469.65559 510.798639z" p-id="3344"></path></svg>