<?xml version="1.0" standalone="no"?><!DOCTYPE svg PUBLIC "-//W3C//DTD SVG 1.1//EN" "http://www.w3.org/Graphics/SVG/1.1/DTD/svg11.dtd"><svg t="1537550309511" class="icon" style="" viewBox="0 0 1024 1024" version="1.1" xmlns="http://www.w3.org/2000/svg" p-id="18709" xmlns:xlink="http://www.w3.org/1999/xlink" width="64" height="64"><defs><style type="text/css"></style></defs><path d="M512 0C230.4 0 0 230.4 0 512s230.4 512 512 512 512-230.4 512-512S793.6 0 512 0z m243.2 390.4L454.4 672s-6.4 0-6.4 6.4h-32-6.4s-6.4 0-6.4-6.4L268.8 537.6c-12.8-12.8-19.2-32-6.4-44.8 12.8-12.8 32-12.8 44.8 0l128 121.6L710.4 352c12.8-12.8 32-12.8 44.8 0 19.2 6.4 12.8 25.6 0 38.4z" fill="#00c724" p-id="18710"></path></svg>