<?xml version="1.0" standalone="no"?><!DOCTYPE svg PUBLIC "-//W3C//DTD SVG 1.1//EN" "http://www.w3.org/Graphics/SVG/1.1/DTD/svg11.dtd"><svg t="1537543414663" class="icon" style="" viewBox="0 0 1152 1024" version="1.1" xmlns="http://www.w3.org/2000/svg" p-id="17180" xmlns:xlink="http://www.w3.org/1999/xlink" width="72" height="64"><defs><style type="text/css"></style></defs><path d="M565.76 962.88l489.6-217.6s43.456-21.76 76.16-32.64c0 21.76-10.88 76.16-32.704 87.04l-478.656 206.72c-43.52 21.76-65.28 21.76-108.8 0l-478.72-206.72c-21.76-10.88-32.64-65.28-32.64-87.04 32.64 21.76 76.16 32.64 76.16 32.64l489.6 217.6z m0-913.92s0 10.88 0 0z m0 0l-489.6 250.24 489.6 195.84 489.6-195.84L565.76 48.96z m533.056 304.64L620.16 560.32c-43.52 21.76-65.28 21.76-108.8 0L32.64 353.6c-32.64-21.76-32.64-76.16 0-97.92L511.36 16.32c43.52-21.76 65.28-21.76 108.8 0l478.656 239.36c43.584 21.76 43.584 87.04 0 97.92z m0 217.6l-478.656 206.72c-43.52 21.76-65.28 21.76-108.8 0L32.64 571.2C10.88 560.32 0 505.92 0 484.16c32.64 21.76 76.16 32.64 76.16 32.64l489.6 217.6 489.6-217.6s43.456-21.76 76.16-32.64c0 32.64 0 76.16-32.704 87.04z" fill="#999999" p-id="17181"></path></svg>