<?xml version="1.0" standalone="no"?><!DOCTYPE svg PUBLIC "-//W3C//DTD SVG 1.1//EN" "http://www.w3.org/Graphics/SVG/1.1/DTD/svg11.dtd"><svg t="1537117431747" class="icon" style="" viewBox="0 0 1040 1024" version="1.1" xmlns="http://www.w3.org/2000/svg" p-id="2601" xmlns:xlink="http://www.w3.org/1999/xlink" width="65" height="64"><defs><style type="text/css"></style></defs><path d="M511.09 908.742c72.88-54.682 309.367-239.594 406.063-406.504l0.838-1.43 0.887-1.43c2.859-4.34 4.93-8.58 7.593-13.758 0.691-1.48 1.43-2.91 2.17-4.39l0.64-1.331 1.283-2.366 1.48-2.515c5.276-10.504 9.466-20.217 13.164-30.522 9.517-25.148 14.152-46.598 14.251-64.645l-0.64-6.607 0.69-6.607c0.197-1.824 0.493-4.241 0.493-7.15 0-136.439-105.177-247.484-234.415-247.484-61.983 0-122.732 27.269-166.568 74.803l-46.991 50.887-47.042-50.887c-43.933-47.535-104.683-74.803-166.615-74.803-129.239 0-234.416 111.045-234.416 247.483 0 3.156 0.395 5.967 0.641 8.285l0.493 5.868-0.296 5.227c0 22.092 5.77 47.388 17.06 75.197l0.74 1.775 0.543 1.529c73.027 176.28 343.636 388.359 427.954 451.375m0.05 67.258c-11.094 0-22.04-3.55-31.312-10.65-14.89-11.637-364.887-264.052-455.814-483.48-0.543-1.182-0.987-2.414-1.43-3.696C8.136 442.67 0.838 409.288 0.838 378.864c0-1.479 0.05-2.86 0.147-4.24-0.493-4.192-0.986-9.37-0.986-15.139C0 187.692 133.875 48 298.37 48c81.066 0 158.037 35.256 213.607 95.364C567.501 83.255 644.375 48 725.587 48c164.396 0 298.37 139.793 298.37 311.486 0 5.72-0.444 10.455-0.84 14.005 0.198 1.528 0.247 3.403 0.247 5.473 0 26.922-6.015 55.818-18.343 88.214-4.487 12.624-10.108 25.494-17.21 39.397-0.492 0.642-0.936 1.38-1.33 2.072l-0.345 0.838c-1.036 1.776-1.874 3.649-2.761 5.473-2.96 5.77-6.361 12.427-10.85 19.38-118.489 204.486-417.056 420.708-429.777 430.667-9.32 7.299-20.366 10.996-31.609 10.996z" p-id="2602" fill="#a1a1a1"></path></svg>