<?xml version="1.0" standalone="no"?><!DOCTYPE svg PUBLIC "-//W3C//DTD SVG 1.1//EN" "http://www.w3.org/Graphics/SVG/1.1/DTD/svg11.dtd"><svg t="1536892461759" class="icon" style="" viewBox="0 0 1024 1024" version="1.1" xmlns="http://www.w3.org/2000/svg" p-id="4616" xmlns:xlink="http://www.w3.org/1999/xlink" width="88" height="88"><defs><style type="text/css"></style></defs><path d="M158.6 182.5c0-21.6 14.5-36 36.1-36H482c21.7 0 36.1-14.4 36.1-36s-18.1-36-36.1-36H194.8c-61.5 0-108.4 46.8-108.4 108v287.9c0 21.6 14.5 36 36.1 36 21.7 0 36.1-14.4 36.1-36V182.5zM876.5 829c0 21.6-14.5 36-36.1 36H553.1c-21.7 0-36.1 14.4-36.1 36s18.1 36 36.1 36h287.3c61.4 0 108.4-46.8 108.4-108V541.1c0-21.6-14.5-36-36.1-36-21.7 0-36.1 14.4-36.1 36V829z m-17.3-715.2c6.6-6.9 15.7-10.8 25.3-10.8 9.6 0 18.7 3.9 25.3 10.8 6.9 6.6 10.9 15.7 10.9 25.2s-3.9 18.7-10.9 25.2L627.9 445c-6.6 6.9-15.7 10.8-25.3 10.8-9.6 0-18.7-3.9-25.3-10.8-6.9-6.6-10.9-15.7-10.9-25.2s3.9-18.7 10.9-25.2l281.9-280.8z m54.2-39.6c21.7 0 36.2 18 36.2 36 0 21.6-18.1 36-36.1 36H696.6c-19.9 0-36.1-16.1-36.1-36 0-21.6 18-36 36.1-36h216.8z m36.2 252c0 20-16.2 36.1-36.1 36.1-20 0-36.1-16.2-36.1-36.1v-216c0-20 16.2-36.1 36.1-36.1 20 0 36.1 16.2 36.1 36.1v216z m-824.1 522c-6.9 6.6-10.9 15.7-10.9 25.2s3.9 18.7 10.9 25.2c6.6 6.9 15.7 10.8 25.3 10.8 9.6 0 18.7-3.9 25.3-10.8L458 617.8c6.9-6.6 10.8-15.7 10.8-25.2s-3.9-18.6-10.8-25.2c-6.6-6.9-15.7-10.8-25.3-10.8-9.6 0-18.7 3.9-25.3 10.8L125.5 848.2z m-36.1 50.4c0 20 16.2 36.1 36.1 36.1 20 0 36.1-16.2 36.1-36.1v-216c0-21.6-18.1-36-36.1-36-21.7 0-36.1 18-36.1 36v216z m253 36c21.7 0 36.1-18 36.1-36 0-21.6-18.1-36-36.1-36H125.5c-21.7 0-36.1 18-36.1 36 0 21.6 18.1 36 36.1 36h216.9z m0 0" p-id="4617" fill="#ffffff"></path></svg>