<?xml version="1.0" standalone="no"?><!DOCTYPE svg PUBLIC "-//W3C//DTD SVG 1.1//EN" "http://www.w3.org/Graphics/SVG/1.1/DTD/svg11.dtd"><svg t="1537560261278" class="icon" style="" viewBox="0 0 1024 1024" version="1.1" xmlns="http://www.w3.org/2000/svg" p-id="20894" xmlns:xlink="http://www.w3.org/1999/xlink" width="64" height="64"><defs><style type="text/css"></style></defs><path d="M512 1014.247619c4.87619 0 9.752381 0 19.504762-4.87619 4.87619-4.87619 9.752381-4.87619 14.628571-9.752381l346.209524-360.838096c19.504762-19.504762 19.504762-48.761905 0-68.266666-19.504762-19.504762-48.761905-19.504762-68.266667 0l-263.314285 277.942857v-780.190476c0-29.257143-19.504762-48.761905-48.761905-48.761905s-48.761905 24.380952-48.761905 48.761905v780.190476L195.047619 565.638095c-19.504762-19.504762-48.761905-19.504762-68.266667 0-9.752381 9.752381-14.628571 24.380952-14.628571 34.133334 0 14.628571 4.87619 24.380952 14.628571 34.133333l346.209524 365.714286c4.87619 4.87619 9.752381 9.752381 14.628572 9.752381 14.628571 0 19.504762 4.87619 24.380952 4.87619" p-id="20895" fill="#ff764b"></path></svg>