<?xml version="1.0" standalone="no"?><!DOCTYPE svg PUBLIC "-//W3C//DTD SVG 1.1//EN" "http://www.w3.org/Graphics/SVG/1.1/DTD/svg11.dtd"><svg t="1537543014095" class="icon" style="" viewBox="0 0 1024 1024" version="1.1" xmlns="http://www.w3.org/2000/svg" p-id="12442" xmlns:xlink="http://www.w3.org/1999/xlink" width="64" height="64"><defs><style type="text/css"></style></defs><path d="M789.333333 0h-554.666666A234.922667 234.922667 0 0 0 0 234.666667v554.666666C0 918.698667 105.258667 1024 234.666667 1024h554.666666c129.408 0 234.666667-105.301333 234.666667-234.666667v-554.666666C1024 105.301333 918.741333 0 789.333333 0zM725.333333 512c0 7.253333-3.669333 13.994667-9.770666 17.962667l-298.666667 192A21.418667 21.418667 0 0 1 384 704v-384c0-7.808 4.266667-15.018667 11.093333-18.688a21.077333 21.077333 0 0 1 21.76 0.768l298.666667 192c6.144 3.925333 9.813333 10.666667 9.813333 17.92z" fill="#e56336" p-id="12443"></path></svg>