<?xml version="1.0" standalone="no"?><!DOCTYPE svg PUBLIC "-//W3C//DTD SVG 1.1//EN" "http://www.w3.org/Graphics/SVG/1.1/DTD/svg11.dtd"><svg t="1537118010052" class="icon" style="" viewBox="0 0 1024 1024" version="1.1" xmlns="http://www.w3.org/2000/svg" p-id="16473" xmlns:xlink="http://www.w3.org/1999/xlink" width="64" height="64"><defs><style type="text/css"></style></defs><path d="M984.602 517.96c-18.998 0-34.395 15.402-34.395 34.396v325.18c0 41.728-33.946 75.677-75.674 75.677H148.706c-41.728 0-75.669-33.949-75.669-75.677V194.709c0-41.728 33.941-75.668 75.669-75.668h236.585c18.992 0 34.395-15.402 34.395-34.401 0-18.994-15.402-34.394-34.395-34.394H148.706c-79.655 0-144.465 64.804-144.465 144.463v682.826c0 79.662 64.81 144.465 144.465 144.465h725.827c79.66 0 144.463-64.803 144.463-144.465v-325.18c0-18.993-15.393-34.395-34.394-34.395z" p-id="16474" fill="#a1a1a1"></path><path d="M1019.722 118.621c-0.008-0.046-0.008-0.092-0.015-0.138-0.008-0.106-0.008-0.21-0.016-0.309v-0.027a29.39 29.39 0 0 0-0.096-1.175l-0.04-0.348v-0.007c-0.007-0.058-0.007-0.118-0.015-0.176-0.045-0.355-0.089-0.709-0.144-1.064-0.02-0.151-0.04-0.309-0.066-0.46-0.005-0.065-0.018-0.125-0.03-0.19-0.047-0.301-0.106-0.597-0.158-0.893-0.04-0.196-0.082-0.393-0.119-0.584 0-0.033-0.015-0.059-0.02-0.084a7.982 7.982 0 0 1-0.039-0.185c-0.048-0.223-0.1-0.44-0.151-0.655a45.22 45.22 0 0 0-0.274-1.084c-0.04-0.138-0.079-0.276-0.121-0.413a23.595 23.595 0 0 0-0.387-1.254l-0.079-0.237c-0.099-0.296-0.188-0.591-0.302-0.886l-0.037-0.1c-0.047-0.131-0.102-0.254-0.153-0.38-0.012-0.047-0.032-0.085-0.052-0.13-0.116-0.31-0.235-0.619-0.361-0.92-0.071-0.171-0.158-0.341-0.229-0.513-0.005-0.013-0.016-0.027-0.016-0.027-0.141-0.321-0.274-0.629-0.423-0.938 0 0-0.007-0.014-0.007-0.021a33.345 33.345 0 0 0-1.045-1.976v-0.008a46.083 46.083 0 0 0-0.821-1.384 2.514 2.514 0 0 1-0.091-0.138c-0.164-0.255-0.329-0.517-0.498-0.774l-0.034-0.046c-0.084-0.124-0.168-0.25-0.263-0.381-0.091-0.132-0.195-0.27-0.294-0.407-0.074-0.1-0.146-0.204-0.218-0.303-0.072-0.097-0.139-0.196-0.21-0.288-0.072-0.099-0.144-0.199-0.223-0.296-0.179-0.237-0.369-0.466-0.552-0.695-0.097-0.119-0.19-0.237-0.29-0.355-0.052-0.072-0.111-0.137-0.163-0.21-0.235-0.269-0.478-0.538-0.715-0.808-0.067-0.072-0.126-0.145-0.19-0.21a28.547 28.547 0 0 0-1.018-1.069c-0.026-0.033-0.059-0.06-0.091-0.091-0.369-0.369-0.742-0.73-1.131-1.084-0.02-0.012-0.032-0.025-0.047-0.04a35.26 35.26 0 0 0-1.195-1.03c-0.018-0.021-0.044-0.04-0.064-0.061a37.408 37.408 0 0 0-1.183-0.925c-0.052-0.04-0.104-0.085-0.16-0.125a31.69 31.69 0 0 0-1.106-0.78 6.508 6.508 0 0 0-0.319-0.224c-0.186-0.124-0.371-0.25-0.559-0.369-0.146-0.099-0.297-0.182-0.448-0.274-0.171-0.107-0.334-0.21-0.505-0.309-0.15-0.092-0.297-0.184-0.447-0.27-0.163-0.09-0.327-0.176-0.492-0.269-0.195-0.111-0.398-0.216-0.597-0.32a24.513 24.513 0 0 0-0.866-0.446c-0.225-0.112-0.447-0.211-0.67-0.315a23.837 23.837 0 0 0-0.826-0.375c-0.25-0.112-0.508-0.218-0.763-0.316-0.249-0.104-0.507-0.21-0.762-0.3-0.282-0.112-0.563-0.21-0.854-0.311-0.23-0.084-0.465-0.163-0.695-0.237-0.15-0.052-0.297-0.097-0.447-0.143L743.036 3.758C725-2.224 705.534 7.553 699.562 25.58c-5.979 18.034 3.796 37.494 21.821 43.473l101.549 33.667c-74.646 16.129-143.904 43.849-207.082 82.963-85.351 52.854-159.459 126.323-220.259 218.386-102.638 155.415-131.615 308.987-132.797 315.447-3.42 18.689 8.955 36.613 27.639 40.034 2.094 0.381 4.177 0.563 6.236 0.563 16.282 0 30.751-11.613 33.791-28.203 0.262-1.444 27.554-146.106 122.539-289.927 55.268-83.693 122.245-150.243 199.07-197.812 73.324-45.405 156.203-73.667 247.214-84.446L787.305 275.257c-13.222 13.641-12.883 35.417 0.76 48.64 6.678 6.474 15.31 9.698 23.929 9.698 8.988 0 17.965-3.5 24.704-10.459l173.365-178.858c0.124-0.131 0.242-0.269 0.369-0.407 0.176-0.183 0.352-0.375 0.524-0.564 0.188-0.21 0.373-0.427 0.563-0.644 0.027-0.032 0.053-0.066 0.08-0.09 0.17-0.21 0.341-0.414 0.512-0.625 0.183-0.223 0.368-0.454 0.539-0.684 0.168-0.216 0.327-0.433 0.492-0.648l0.564-0.794c0.116-0.179 0.24-0.362 0.361-0.539 0.116-0.177 0.242-0.354 0.352-0.54 0.042-0.058 0.081-0.13 0.128-0.196 0.022-0.045 0.058-0.099 0.085-0.151 0.111-0.17 0.215-0.349 0.321-0.524 0.176-0.311 0.354-0.612 0.524-0.914 0.099-0.177 0.19-0.354 0.282-0.526 0.032-0.065 0.071-0.131 0.106-0.196 0.123-0.25 0.255-0.499 0.378-0.749 0.1-0.21 0.201-0.42 0.297-0.629 0.137-0.29 0.271-0.573 0.394-0.868 0.106-0.235 0.198-0.472 0.297-0.715 0.111-0.27 0.216-0.539 0.322-0.807 0.096-0.269 0.197-0.538 0.286-0.809 0.087-0.249 0.171-0.497 0.25-0.741 0.1-0.296 0.19-0.598 0.274-0.894 0.067-0.236 0.134-0.467 0.198-0.702 0.087-0.31 0.166-0.624 0.237-0.939 0.045-0.19 0.092-0.38 0.139-0.572 0.013-0.052 0.02-0.111 0.032-0.163 0.067-0.296 0.124-0.599 0.184-0.899 0.032-0.171 0.064-0.348 0.099-0.519 0.018-0.138 0.04-0.269 0.066-0.406 0.032-0.238 0.064-0.473 0.104-0.71 0.02-0.15 0.044-0.309 0.064-0.466l0.079-0.664c0.015-0.131 0.02-0.262 0.034-0.387 0.013-0.12 0.025-0.229 0.032-0.347 0.005-0.067 0.013-0.133 0.02-0.199 0.021-0.3 0.037-0.596 0.06-0.899 0-0.046 0-0.092 0.008-0.138 0.005-0.183 0.013-0.367 0.018-0.551 0 0 0-0.012 0.005-0.02 0.007-0.366 0.015-0.727 0.015-1.096v-0.038a39.536 39.536 0 0 0-0.035-1.688z" p-id="16475" fill="#a1a1a1"></path></svg>