<?xml version="1.0" standalone="no"?><!DOCTYPE svg PUBLIC "-//W3C//DTD SVG 1.1//EN" "http://www.w3.org/Graphics/SVG/1.1/DTD/svg11.dtd"><svg t="1542075616073" class="icon" style="" viewBox="0 0 1024 1024" version="1.1" xmlns="http://www.w3.org/2000/svg" p-id="9884" xmlns:xlink="http://www.w3.org/1999/xlink" width="64" height="64"><defs><style type="text/css"></style></defs><path d="M727.264 202.871h-562.818c-65.015 0.079-117.698 52.763-117.777 117.77v562.826c0.089 65.011 52.767 117.689 117.769 117.777h562.827c65.015-0.079 117.698-52.763 117.777-117.77v-562.826c-0.069-65.019-52.759-117.708-117.771-117.777zM775.618 883.468c-0.039 26.689-21.665 48.314-48.35 48.354h-562.822c-26.689-0.039-48.314-21.665-48.354-48.35v-562.822c0.039-26.689 21.665-48.314 48.35-48.354h562.822c26.689 0.039 48.314 21.665 48.354 48.35v562.822z" fill="#9369be" p-id="9885"></path><path d="M884.058 29.313h-563.981c-53.834 0.057-99.178 36.341-112.969 85.783-0.858 3.348-1.239 6.267-1.239 9.275 0 19.171 15.541 34.713 34.711 34.713 15.739 0 29.031-10.475 33.286-24.833 5.785-20.726 24.274-35.501 46.217-35.513h563.977c26.373 0.030 47.744 21.406 47.764 47.779v563.966c-0.054 19.099-11.248 35.571-27.425 43.263-12.546 5.634-20.947 17.767-20.947 31.863 0 19.171 15.541 34.713 34.713 34.713 5.554 0 10.803-1.303 15.458-3.625 40.143-19.081 67.553-59.472 67.626-106.273v-563.905c-0.069-64.697-52.492-117.126-117.18-117.205zM386.167 417.982c-6.786-6.786-21.296-10.795-27.093 0v368.171c5.155 14.423 16.991 7.585 27.093 0l226.425-171.806c3.145-3.139 5.089-7.478 5.089-12.271s-1.945-9.132-5.089-12.27l-226.426-171.824z" fill="#9369be" p-id="9886"></path></svg>