<?xml version="1.0" standalone="no"?><!DOCTYPE svg PUBLIC "-//W3C//DTD SVG 1.1//EN" "http://www.w3.org/Graphics/SVG/1.1/DTD/svg11.dtd"><svg t="1537122471081" class="icon" style="" viewBox="0 0 1024 1024" version="1.1" xmlns="http://www.w3.org/2000/svg" p-id="5913" data-spm-anchor-id="a313x.7781069.0.i7" xmlns:xlink="http://www.w3.org/1999/xlink" width="64" height="64"><defs><style type="text/css"></style></defs><path d="M544 19.2h-64V608l64-64z m262.4 358.4l-44.8-51.2L544 544v96zM544 640v-96l-64 64 44.8 51.2z" fill="#a1a1a1" p-id="5914"></path><path d="M524.8 659.2L512 640l-12.8 19.2zM480 640v-32l32 32 32-32-281.6-281.6-44.8 51.2z" fill="#a1a1a1" p-id="5915"></path><path d="M480 640l19.2 19.2L512 640l-32-32z" fill="#a1a1a1" p-id="5916"></path><path d="M832 134.4v64h128v748.8H64V198.4h128v-64H0v876.8h1024V134.4z" fill="#a1a1a1" p-id="5917"></path></svg>