<?xml version="1.0" standalone="no"?><!DOCTYPE svg PUBLIC "-//W3C//DTD SVG 1.1//EN" "http://www.w3.org/Graphics/SVG/1.1/DTD/svg11.dtd"><svg t="1537060953306" class="icon" style="" viewBox="0 0 1024 1024" version="1.1" xmlns="http://www.w3.org/2000/svg" p-id="1904" xmlns:xlink="http://www.w3.org/1999/xlink" width="88" height="88"><defs><style type="text/css"></style></defs><path d="M944 512c0-191.872-123.008-289.792-128.256-293.888-20.736-16.256-50.624-12.48-67.008 8.256C732.416 247.04 736 277.12 756.544 293.632 760.256 296.64 848 368.64 848 512c0 117.76-58.496 186.496-81.536 209.216l-49.408-49.408c22.528-30.976 44.096-75.904 44.096-135.232 0-121.856-90.624-183.744-94.528-186.304-21.888-14.592-51.2-8.768-65.984 12.992C585.728 384.896 591.36 414.656 612.928 429.76c2.112 1.472 52.16 37.376 52.16 106.752 0 27.328-7.808 49.216-17.344 65.984L512 466.752 512 64 310.656 265.344l-160-160L105.344 150.656l160 160L256 320 64 320l0 384 192 0 256 256L512 557.248l93.504 93.504c-14.72 15.872-17.984 39.872-5.44 58.624 9.344 13.888 24.448 21.376 39.936 21.376 9.216 0 18.496-2.624 26.624-8.064 0.512-0.384 2.88-2.048 6.208-4.608l71.744 71.744c1.344 2.56 1.984 5.312 3.84 7.68 4.864 6.272 11.072 10.816 17.792 13.952l107.2 107.2 45.248-45.248-84.416-84.416C869.568 753.728 944 662.016 944 512z" p-id="1905" fill="#fd7d02"></path></svg>