<?xml version="1.0" standalone="no"?><!DOCTYPE svg PUBLIC "-//W3C//DTD SVG 1.1//EN" "http://www.w3.org/Graphics/SVG/1.1/DTD/svg11.dtd"><svg t="1540859831662" class="icon" style="" viewBox="0 0 1024 1024" version="1.1" xmlns="http://www.w3.org/2000/svg" p-id="2769" xmlns:xlink="http://www.w3.org/1999/xlink" width="64" height="64"><defs><style type="text/css"></style></defs><path d="M325.5 192.5 325.5 192.5c-19.9 0-36 16.1-36 36l0 567c0 19.9 16.1 36 36 36l0 0c19.9 0 36-16.1 35-36l0-567C361.5 208.6 345.4 192.5 325.5 192.5z" p-id="2770" fill="#8fbd1d"></path><path d="M698.5 192.5 698.5 192.5c-19.9 0-36 16.1-36 36l0 567c0 19.9 16.1 36 36 36l0 0c19.9 0 36-16.1 36-36l0-567C734.5 208.6 718.4 192.5 698.5 192.5z" p-id="2771" fill="#8fbd1d"></path></svg>