<?xml version="1.0" standalone="no"?><!DOCTYPE svg PUBLIC "-//W3C//DTD SVG 1.1//EN" "http://www.w3.org/Graphics/SVG/1.1/DTD/svg11.dtd"><svg t="1541027839947" class="icon" style="" viewBox="0 0 1025 1024" version="1.1" xmlns="http://www.w3.org/2000/svg" p-id="1930" xmlns:xlink="http://www.w3.org/1999/xlink" width="64.0625" height="64"><defs><style type="text/css"></style></defs><path d="M513.024 0C230.4 0 1.024 229.376 1.024 512s229.376 512 512 512 512-229.376 512-512-229.376-512-512-512z m0 972.8c-254.976 0-460.8-205.824-460.8-460.8s205.824-460.8 460.8-460.8 460.8 205.824 460.8 460.8c0 253.952-206.848 460.8-460.8 460.8z m232.448-497.664C665.6 420.864 521.216 339.968 439.296 289.792c-33.792-21.504-62.464-12.288-65.536 24.576-2.048 100.352 0 294.912 0 397.312 2.048 37.888 35.84 43.008 64.512 27.648 81.92-50.176 223.232-135.168 306.176-185.344 0 0 62.464-34.816 1.024-78.848z" p-id="1931" fill="#8fbd1d"></path></svg>