<?xml version="1.0" standalone="no"?><!DOCTYPE svg PUBLIC "-//W3C//DTD SVG 1.1//EN" "http://www.w3.org/Graphics/SVG/1.1/DTD/svg11.dtd"><svg t="1538517918305" class="icon" style="" viewBox="0 0 1024 1024" version="1.1" xmlns="http://www.w3.org/2000/svg" p-id="5833" xmlns:xlink="http://www.w3.org/1999/xlink" width="64" height="64"><defs><style type="text/css"></style></defs><path d="M840.254627 64.46829 183.398472 64.46829c-65.719794 0-119.42802 53.704133-119.42802 119.425973l0 656.859225c0 65.659419 53.708226 119.426996 119.42802 119.426996l656.856156 0c65.663512 0 119.429043-53.767578 119.429043-119.426996L959.68367 183.894264C959.68367 118.173446 905.91814 64.46829 840.254627 64.46829zM707.41618 530.519796 335.367629 738.880287c-17.903765 10.083659-32.540114 1.454118-32.540114-19.010983L302.827515 304.841893c0-20.527522 14.636349-29.100782 32.540114-19.071358l372.048551 208.30114C725.289246 504.102123 725.289246 520.488325 707.41618 530.519796z" p-id="5834" fill="#f40400"></path></svg>