<?xml version="1.0" standalone="no"?><!DOCTYPE svg PUBLIC "-//W3C//DTD SVG 1.1//EN" "http://www.w3.org/Graphics/SVG/1.1/DTD/svg11.dtd"><svg t="1545945784112" class="icon" style="" viewBox="0 0 1024 1024" version="1.1" xmlns="http://www.w3.org/2000/svg" p-id="2441" xmlns:xlink="http://www.w3.org/1999/xlink" width="64" height="64"><defs><style type="text/css"></style></defs><path d="M899.375984 842.057389l0.009783-0.007826-180.079864-180.079865c44.551344-57.189455 71.099398-129.091086 71.099398-207.201221 0-186.376418-151.087933-337.464351-337.464351-337.464351S115.478556 268.392059 115.478556 454.768477s151.087933 337.464351 337.464351 337.464351c87.118629 0 166.524077-33.018751 226.396122-87.218419l178.541924 178.541924 0.025437-0.025436c5.337787 5.519757 12.804427 8.965447 21.086997 8.965447 16.210984 0 29.350001-13.139017 29.35-29.350001a29.242384 29.242384 0 0 0-8.967403-21.088954z m-447.51707-110.543842c-153.19135 0-277.375116-124.185723-277.375117-277.375117S298.667563 176.763314 451.858914 176.763314c153.189393 0 277.377073 124.185723 277.377073 277.375116s-124.187679 277.375116-277.377073 277.375117z" fill="rgba(255,255,255,0.7)" p-id="2442"></path></svg>