<?xml version="1.0" standalone="no"?><!DOCTYPE svg PUBLIC "-//W3C//DTD SVG 1.1//EN" "http://www.w3.org/Graphics/SVG/1.1/DTD/svg11.dtd"><svg t="1535985469237" class="icon" style="" viewBox="0 0 1024 1024" version="1.1" xmlns="http://www.w3.org/2000/svg" p-id="5145" xmlns:xlink="http://www.w3.org/1999/xlink" width="200" height="200"><defs><style type="text/css"></style></defs><path d="M543.261908 194.736429c-8.259976-8.263976-19.092944-12.392964-29.926912-12.389963a42.769875 42.769875 0 0 0-4.303987 0.219999c-0.173999 0.02-0.342999 0.042-0.515999 0.063-0.492999 0.055-0.987997 0.113-1.480995 0.187999-0.339999 0.05-0.682998 0.113-1.020997 0.17-0.317999 0.056-0.637998 0.108-0.958998 0.170999-0.432999 0.086-0.862997 0.184999-1.290996 0.284-0.224999 0.052-0.446999 0.1-0.668998 0.155999-0.485999 0.118-0.965997 0.250999-1.444996 0.388999-0.168 0.047-0.337999 0.094-0.505998 0.145a39.044886 39.044886 0 0 0-1.519996 0.487998c-0.139 0.047-0.277999 0.092-0.416999 0.14a43.695872 43.695872 0 0 0-1.556995 0.587998c-0.12 0.047-0.233999 0.09-0.349999 0.14-0.534998 0.215999-1.064997 0.447999-1.583995 0.687998l-0.290999 0.129999a44.25987 44.25987 0 0 0-1.631996 0.808998l-0.196999 0.1c-0.583998 0.309999-1.159997 0.630998-1.729995 0.966997a42.512875 42.512875 0 0 0-9.141973 7.239978L119.238151 558.905363c-16.519952 16.520952-16.519952 43.305873 0 59.827824 16.519952 16.521952 43.356873 16.521952 59.877824 0l291.953145-291.908144v654.804081c0 23.364932 18.896945 42.371876 42.257876 42.371876h-0.159999c23.364932 0 42.144877-19.006944 42.144876-42.371876V326.718043l292.155144 291.803145c16.519952 16.518952 43.377873 16.409952 59.896825-0.214999h0.04c16.521952-16.624951 16.533952-43.092874 0.01-59.619826L543.262908 194.735429zM986.50561 58.534829c0-23.263932-18.863945-42.121877-42.128877-42.121877H76.459276c-23.263932 0-42.122877 18.858945-42.122877 42.121877 0 23.262932 18.858945 42.121877 42.122877 42.121876h867.917457c23.263932 0 42.127877-18.858945 42.127877-42.121876z" fill="" p-id="5146"></path></svg>